<svg id="mermaidChart0" width="650" height="481" viewBox="-50 -10 650 481" version="1.1" xmlns="http://www.w3.org/2000/svg" xmlns:xlink="http://www.w3.org/1999/xlink"><style type="text/css" title="mermaid-svg-internal-css">/*  */
* { margin-top: 0px; margin-right: 0px; margin-bottom: 0px; margin-left: 0px; padding-top: 0px; padding-right: 0px; padding-bottom: 0px; padding-left: 0px;  }
/*  */
</style><g/><g><line x1="75" y1="5" x2="75" y2="2000" class="actor-line" stroke-width="0.5px" stroke="#999"/><rect x="0" y="0" fill="#eaeaea" stroke="#666" width="150" height="65" rx="3" ry="3" class="actor"/><text x="75" y="37.5" class="actor" style="text-anchor: middle; ">Observer</text></g><g><line x1="275" y1="5" x2="275" y2="2000" class="actor-line" stroke-width="0.5px" stroke="#999"/><rect x="200" y="0" fill="#eaeaea" stroke="#666" width="150" height="65" rx="3" ry="3" class="actor"/><text x="275" y="37.5" class="actor" style="text-anchor: middle; ">Scene Graph</text></g><g><line x1="475" y1="5" x2="475" y2="2000" class="actor-line" stroke-width="0.5px" stroke="#999"/><rect x="400" y="0" fill="#eaeaea" stroke="#666" width="150" height="65" rx="3" ry="3" class="actor"/><text x="475" y="37.5" class="actor" style="text-anchor: middle; ">Tree View</text></g><defs><marker id="arrowhead" refX="5" refY="2" markerWidth="6" markerHeight="4" orient="auto"><path d="M 0,0 V 4 L6,2 Z"/></marker></defs><defs><marker id="crosshead" markerWidth="15" markerHeight="8" orient="auto" refX="16" refY="4"><path fill="black" stroke="#000000" style="stroke-dasharray: 0px, 0px; " stroke-width="1px" d="M 9,2 V 6 L16,4 Z"/><path fill="none" stroke="#000000" style="stroke-dasharray: 0px, 0px; " stroke-width="1px" d="M 0,1 L 6,7 M 6,1 L 0,7"/></marker></defs><g><text x="375" y="93" style="text-anchor: middle; " class="messageText">traverse and create initial model</text><line x1="275" y1="100" x2="475" y2="100" class="messageLine0" stroke-width="2" stroke="black" style="fill: none; " marker-end="url(#arrowhead)"/></g><g><text x="175" y="153" style="text-anchor: middle; " class="messageText">was mutated</text><line x1="275" y1="160" x2="75" y2="160" class="messageLine0" stroke-width="2" stroke="black" style="fill: none; " marker-end="url(#arrowhead)"/></g><g><text x="275" y="213" style="text-anchor: middle; " class="messageText">add new node to tree view and map</text><line x1="75" y1="220" x2="475" y2="220" class="messageLine0" stroke-width="2" stroke="black" style="fill: none; " marker-end="url(#arrowhead)"/></g><g><text x="275" y="293" style="text-anchor: middle; " class="messageText">remove node from tree view and map</text><line x1="75" y1="300" x2="475" y2="300" class="messageLine0" stroke-width="2" stroke="black" style="fill: none; " marker-end="url(#arrowhead)"/></g><g><text x="275" y="348" style="text-anchor: middle; " class="messageText">look up node in map and alter it in tree view</text><line x1="75" y1="355" x2="475" y2="355" class="messageLine0" stroke-width="2" stroke="black" style="fill: none; " marker-end="url(#arrowhead)"/></g><g><line x1="65" y1="250" x2="485" y2="250" stroke-width="2" stroke="#526e52" class="loopLine"/><line x1="485" y1="250" x2="485" y2="365" stroke-width="2" stroke="#526e52" class="loopLine"/><line x1="65" y1="365" x2="485" y2="365" stroke-width="2" stroke="#526e52" class="loopLine"/><line x1="65" y1="250" x2="65" y2="365" stroke-width="2" stroke="#526e52" class="loopLine"/><line x1="65" y1="310" x2="485" y2="310" stroke-width="2" stroke="#526e52" class="loopLine"/><rect x="65" y="250" fill="#526e52" stroke="none" width="50" height="20" rx="0" ry="0" class="labelBox"/><text x="72.5" y="265" fill="white" class="labelText"><tspan x="72.5">alt</tspan></text><text x="275" y="265" style="text-anchor: middle; " fill="black" class="loopText"><tspan x="275">[ node removed ]</tspan></text><text x="275" y="325" style="text-anchor: middle; " fill="black" class="loopText"><tspan x="275">[ node modified ]</tspan></text></g><g><line x1="55" y1="170" x2="495" y2="170" stroke-width="2" stroke="#526e52" class="loopLine"/><line x1="495" y1="170" x2="495" y2="375" stroke-width="2" stroke="#526e52" class="loopLine"/><line x1="55" y1="375" x2="495" y2="375" stroke-width="2" stroke="#526e52" class="loopLine"/><line x1="55" y1="170" x2="55" y2="375" stroke-width="2" stroke="#526e52" class="loopLine"/><line x1="55" y1="230" x2="495" y2="230" stroke-width="2" stroke="#526e52" class="loopLine"/><rect x="55" y="170" fill="#526e52" stroke="none" width="50" height="20" rx="0" ry="0" class="labelBox"/><text x="62.5" y="185" fill="white" class="labelText"><tspan x="62.5">alt</tspan></text><text x="275" y="185" style="text-anchor: middle; " fill="black" class="loopText"><tspan x="275">[ node added ]</tspan></text><text x="275" y="245" style="text-anchor: middle; " fill="black" class="loopText"><tspan x="275">[ . ]</tspan></text></g><g><line x1="45" y1="110" x2="505" y2="110" stroke-width="2" stroke="#526e52" class="loopLine"/><line x1="505" y1="110" x2="505" y2="385" stroke-width="2" stroke="#526e52" class="loopLine"/><line x1="45" y1="385" x2="505" y2="385" stroke-width="2" stroke="#526e52" class="loopLine"/><line x1="45" y1="110" x2="45" y2="385" stroke-width="2" stroke="#526e52" class="loopLine"/><rect x="45" y="110" fill="#526e52" stroke="none" width="50" height="20" rx="0" ry="0" class="labelBox"/><text x="52.5" y="125" fill="white" class="labelText"><tspan x="52.5">loop</tspan></text><text x="275" y="125" style="text-anchor: middle; " fill="black" class="loopText"><tspan x="275">[ observe scene graph ]</tspan></text></g><g><rect x="0" y="405" fill="#eaeaea" stroke="#666" width="150" height="65" rx="3" ry="3" class="actor"/><text x="75" y="442.5" class="actor" style="text-anchor: middle; ">Observer</text></g><g><rect x="200" y="405" fill="#eaeaea" stroke="#666" width="150" height="65" rx="3" ry="3" class="actor"/><text x="275" y="442.5" class="actor" style="text-anchor: middle; ">Scene Graph</text></g><g><rect x="400" y="405" fill="#eaeaea" stroke="#666" width="150" height="65" rx="3" ry="3" class="actor"/><text x="475" y="442.5" class="actor" style="text-anchor: middle; ">Tree View</text></g></svg>