<svg id="mermaidChart1" width="695" height="706" viewBox="-50 -10 695 706" version="1.1" xmlns="http://www.w3.org/2000/svg" xmlns:xlink="http://www.w3.org/1999/xlink"><style type="text/css" title="mermaid-svg-internal-css">/*  */
* { margin-top: 0px; margin-right: 0px; margin-bottom: 0px; margin-left: 0px; padding-top: 0px; padding-right: 0px; padding-bottom: 0px; padding-left: 0px;  }
/*  */
</style><g/><g><line x1="75" y1="5" x2="75" y2="2000" class="actor-line" stroke-width="0.5px" stroke="#999"/><rect x="0" y="0" fill="#eaeaea" stroke="#666" width="150" height="65" rx="3" ry="3" class="actor"/><text x="75" y="37.5" class="actor" style="text-anchor: middle; ">Scene Graph</text></g><g><line x1="275" y1="5" x2="275" y2="2000" class="actor-line" stroke-width="0.5px" stroke="#999"/><rect x="200" y="0" fill="#eaeaea" stroke="#666" width="150" height="65" rx="3" ry="3" class="actor"/><text x="275" y="37.5" class="actor" style="text-anchor: middle; ">Tree View</text></g><g><line x1="475" y1="5" x2="475" y2="2000" class="actor-line" stroke-width="0.5px" stroke="#999"/><rect x="400" y="0" fill="#eaeaea" stroke="#666" width="150" height="65" rx="3" ry="3" class="actor"/><text x="475" y="37.5" class="actor" style="text-anchor: middle; ">Tree Node</text></g><defs><marker id="arrowhead" refX="5" refY="2" markerWidth="6" markerHeight="4" orient="auto"><path d="M 0,0 V 4 L6,2 Z"/></marker></defs><defs><marker id="crosshead" markerWidth="15" markerHeight="8" orient="auto" refX="16" refY="4"><path fill="black" stroke="#000000" style="stroke-dasharray: 0px, 0px; " stroke-width="1px" d="M 9,2 V 6 L16,4 Z"/><path fill="none" stroke="#000000" style="stroke-dasharray: 0px, 0px; " stroke-width="1px" d="M 0,1 L 6,7 M 6,1 L 0,7"/></marker></defs><g><text x="175" y="93" style="text-anchor: middle; " class="messageText">traverse and create Tree View</text><line x1="75" y1="100" x2="275" y2="100" class="messageLine0" stroke-width="2" stroke="black" style="fill: none; " marker-end="url(#arrowhead)"/></g><g><text x="275" y="178" style="text-anchor: middle; " class="messageText">add new node</text><path d="M 275,185 C 335,175 335,215 275,205" class="messageLine0" stroke-width="2" stroke="black" style="fill: none; " marker-end="url(#arrowhead)"/></g><g><text x="175" y="243" style="text-anchor: middle; " class="messageText">add new node</text><line x1="275" y1="250" x2="75" y2="250" class="messageLine0" stroke-width="2" stroke="black" style="fill: none; " marker-end="url(#arrowhead)"/></g><g><line x1="65" y1="135" x2="385" y2="135" stroke-width="2" stroke="#526e52" class="loopLine"/><line x1="385" y1="135" x2="385" y2="260" stroke-width="2" stroke="#526e52" class="loopLine"/><line x1="65" y1="260" x2="385" y2="260" stroke-width="2" stroke="#526e52" class="loopLine"/><line x1="65" y1="135" x2="65" y2="260" stroke-width="2" stroke="#526e52" class="loopLine"/><rect x="65" y="135" fill="#526e52" stroke="none" width="50" height="20" rx="0" ry="0" class="labelBox"/><text x="72.5" y="150" fill="white" class="labelText"><tspan x="72.5">opt</tspan></text><text x="225" y="150" style="text-anchor: middle; " fill="black" class="loopText"><tspan x="225">[ add node to tree view ]</tspan></text></g><g><text x="275" y="313" style="text-anchor: middle; " class="messageText">remove node</text><path d="M 275,320 C 335,310 335,350 275,340" class="messageLine0" stroke-width="2" stroke="black" style="fill: none; " marker-end="url(#arrowhead)"/></g><g><text x="175" y="378" style="text-anchor: middle; " class="messageText">remove node</text><line x1="275" y1="385" x2="75" y2="385" class="messageLine0" stroke-width="2" stroke="black" style="fill: none; " marker-end="url(#arrowhead)"/></g><g><line x1="65" y1="270" x2="385" y2="270" stroke-width="2" stroke="#526e52" class="loopLine"/><line x1="385" y1="270" x2="385" y2="395" stroke-width="2" stroke="#526e52" class="loopLine"/><line x1="65" y1="395" x2="385" y2="395" stroke-width="2" stroke="#526e52" class="loopLine"/><line x1="65" y1="270" x2="65" y2="395" stroke-width="2" stroke="#526e52" class="loopLine"/><rect x="65" y="270" fill="#526e52" stroke="none" width="50" height="20" rx="0" ry="0" class="labelBox"/><text x="72.5" y="285" fill="white" class="labelText"><tspan x="72.5">opt</tspan></text><text x="225" y="285" style="text-anchor: middle; " fill="black" class="loopText"><tspan x="225">[ remove node ]</tspan></text></g><g><text x="275" y="448" style="text-anchor: middle; " class="messageText">change attribute</text><line x1="475" y1="455" x2="75" y2="455" class="messageLine0" stroke-width="2" stroke="black" style="fill: none; " marker-end="url(#arrowhead)"/></g><g><line x1="65" y1="405" x2="485" y2="405" stroke-width="2" stroke="#526e52" class="loopLine"/><line x1="485" y1="405" x2="485" y2="465" stroke-width="2" stroke="#526e52" class="loopLine"/><line x1="65" y1="465" x2="485" y2="465" stroke-width="2" stroke="#526e52" class="loopLine"/><line x1="65" y1="405" x2="65" y2="465" stroke-width="2" stroke="#526e52" class="loopLine"/><rect x="65" y="405" fill="#526e52" stroke="none" width="50" height="20" rx="0" ry="0" class="labelBox"/><text x="72.5" y="420" fill="white" class="labelText"><tspan x="72.5">opt</tspan></text><text x="275" y="420" style="text-anchor: middle; " fill="black" class="loopText"><tspan x="275">[ attribute mutation in Tree View ]</tspan></text></g><g><text x="275" y="518" style="text-anchor: middle; " class="messageText">notify</text><line x1="75" y1="525" x2="475" y2="525" style="stroke-dasharray: 3px, 3px; fill: none; " class="messageLine1" stroke-width="2" stroke="black" marker-end="url(#crosshead)"/></g><g><text x="475" y="553" style="text-anchor: middle; " class="messageText">update attributes</text><path d="M 475,560 C 535,550 535,590 475,580" class="messageLine0" stroke-width="2" stroke="black" style="fill: none; " marker-end="url(#arrowhead)"/></g><g><line x1="65" y1="475" x2="585" y2="475" stroke-width="2" stroke="#526e52" class="loopLine"/><line x1="585" y1="475" x2="585" y2="600" stroke-width="2" stroke="#526e52" class="loopLine"/><line x1="65" y1="600" x2="585" y2="600" stroke-width="2" stroke="#526e52" class="loopLine"/><line x1="65" y1="475" x2="65" y2="600" stroke-width="2" stroke="#526e52" class="loopLine"/><rect x="65" y="475" fill="#526e52" stroke="none" width="50" height="20" rx="0" ry="0" class="labelBox"/><text x="72.5" y="490" fill="white" class="labelText"><tspan x="72.5">opt</tspan></text><text x="325" y="490" style="text-anchor: middle; " fill="black" class="loopText"><tspan x="325">[ attribute mutation in Scene Graph (3D canvas) ]</tspan></text></g><g><line x1="55" y1="110" x2="595" y2="110" stroke-width="2" stroke="#526e52" class="loopLine"/><line x1="595" y1="110" x2="595" y2="610" stroke-width="2" stroke="#526e52" class="loopLine"/><line x1="55" y1="610" x2="595" y2="610" stroke-width="2" stroke="#526e52" class="loopLine"/><line x1="55" y1="110" x2="55" y2="610" stroke-width="2" stroke="#526e52" class="loopLine"/><rect x="55" y="110" fill="#526e52" stroke="none" width="50" height="20" rx="0" ry="0" class="labelBox"/><text x="62.5" y="125" fill="white" class="labelText"><tspan x="62.5">loop</tspan></text><text x="325" y="125" style="text-anchor: middle; " fill="black" class="loopText"><tspan x="325">[ main ]</tspan></text></g><g><rect x="0" y="630" fill="#eaeaea" stroke="#666" width="150" height="65" rx="3" ry="3" class="actor"/><text x="75" y="667.5" class="actor" style="text-anchor: middle; ">Scene Graph</text></g><g><rect x="200" y="630" fill="#eaeaea" stroke="#666" width="150" height="65" rx="3" ry="3" class="actor"/><text x="275" y="667.5" class="actor" style="text-anchor: middle; ">Tree View</text></g><g><rect x="400" y="630" fill="#eaeaea" stroke="#666" width="150" height="65" rx="3" ry="3" class="actor"/><text x="475" y="667.5" class="actor" style="text-anchor: middle; ">Tree Node</text></g></svg>